<?xml version="1.0" standalone="no"?>
<!DOCTYPE svg PUBLIC "-//W3C//DTD SVG 20010904//EN"
 "http://www.w3.org/TR/2001/REC-SVG-20010904/DTD/svg10.dtd">
<svg version="1.0" xmlns="http://www.w3.org/2000/svg"
 width="900.000000pt" height="900.000000pt" viewBox="0 0 900.000000 900.000000"
 preserveAspectRatio="xMidYMid meet">
<metadata>
Created by potrace 1.14, written by Peter Selinger 2001-2017
</metadata>
<g transform="translate(0.000000,900.000000) scale(0.100000,-0.100000)"
fill="#000000" stroke="none">
<path d="M1860 4495 l0 -3006 1713 4 1712 3 225 27 c732 88 898 129 1160 290
187 115 357 283 483 477 177 274 258 559 258 910 0 217 -20 356 -73 520 -118
363 -348 624 -705 800 -110 54 -282 118 -390 146 -40 10 -73 21 -73 24 0 3 17
12 38 19 148 53 337 156 453 247 231 182 404 487 455 803 18 110 20 350 4 466
-87 631 -572 1103 -1265 1231 -233 43 -252 44 -2167 44 l-1828 0 0 -3005z
m2919 1775 c242 -32 388 -115 470 -269 43 -81 61 -164 61 -277 -1 -273 -121
-452 -355 -527 -129 -42 -207 -47 -726 -47 l-499 0 0 565 0 565 488 0 c268 0
520 -5 561 -10z m231 -2294 c115 -22 235 -65 301 -107 150 -96 239 -268 239
-462 0 -270 -133 -465 -378 -554 -168 -61 -321 -73 -959 -73 l-483 0 0 611 0
610 593 -3 c517 -4 604 -7 687 -22z"/>
</g>
</svg>
